<svg xmlns="http://www.w3.org/2000/svg" xmlns:v="https://svgstorm.com"
viewBox = "0 0 1728 1481"
width="1728"
height="1481">
<g fill="None" fill-opacity="0.0" stroke="#FEFEFE" stroke-opacity="1.00" stroke-width="0.3"><path d="
M 0.00 1481.00 
L 1728.00 1481.00
L 1728.00 0.00
L 0.00 0.00
L 0.00 1481.00
M 735.00 680.00 
C 729.33 680.55 722.60 680.54 717.00 680.00
C 648.96 680.00 592.07 623.93 592.00 556.00 C 591.93 488.07 647.78 431.00 716.00 431.00
C 721.67 430.45 728.40 430.46 734.00 431.00
C 750.75 431.00 767.50 434.20 782.00 441.00
C 796.32 426.20 823.55 403.76 844.23 419.77 C 864.91 435.78 851.78 469.96 839.00 486.00
C 865.63 523.80 865.03 579.61 842.75 618.75 C 820.46 657.88 778.69 678.79 735.00 680.00
M 1023.00 431.00 
C 1091.42 431.00 1144.01 489.07 1144.00 556.00 C 1143.99 622.93 1090.11 680.00 1022.00 680.00
C 1017.28 680.46 1011.65 680.45 1007.00 680.00
C 939.31 680.00 884.80 625.95 883.00 559.00 C 881.20 492.05 932.94 432.36 1001.00 431.00
C 1007.95 430.16 1016.14 430.34 1023.00 431.00
M 572.00 487.00 
C 567.53 490.13 557.68 485.59 552.00 487.00 C 546.32 488.41 538.22 486.36 532.00 487.00 C 525.78 487.64 518.46 486.71 512.00 487.00 C 505.54 487.29 498.57 486.86 492.00 487.00 C 485.43 487.14 478.62 486.93 472.00 487.00 C 465.38 487.07 458.63 486.95 452.00 487.00
C 452.00 504.33 452.00 521.67 452.00 539.00
C 487.67 539.00 523.33 539.00 559.00 539.00
C 559.00 556.33 559.00 573.67 559.00 591.00
C 523.33 591.00 487.67 591.00 452.00 591.00
C 452.00 619.00 452.00 647.00 452.00 675.00
C 429.67 675.00 407.33 675.00 385.00 675.00
C 385.00 595.00 385.00 515.00 385.00 435.00
C 447.33 435.00 509.67 435.00 572.00 435.00
C 575.19 437.23 572.53 447.89 573.00 452.00 C 573.47 456.11 573.46 465.87 573.00 470.00 C 572.54 474.13 575.17 484.78 572.00 487.00
M 1365.00 488.00 
C 1361.09 490.74 1353.07 486.84 1348.00 488.00 C 1342.93 489.16 1335.56 487.46 1330.00 488.00 C 1324.44 488.54 1317.77 487.72 1312.00 488.00 C 1306.23 488.28 1299.83 487.79 1294.00 488.00
C 1294.00 513.33 1294.00 538.67 1294.00 564.00
C 1294.00 573.04 1294.27 583.06 1294.00 592.00 C 1293.73 600.94 1294.71 611.41 1294.00 620.00 C 1293.29 628.59 1295.64 640.27 1294.00 648.00 C 1292.36 655.73 1298.12 669.88 1293.00 675.00
C 1289.90 678.10 1281.53 675.38 1277.00 676.00 C 1272.47 676.62 1264.59 675.97 1260.00 676.00 C 1255.41 676.03 1246.94 676.55 1243.00 676.00 C 1239.06 675.45 1227.92 678.30 1227.00 674.00
C 1226.24 665.39 1227.37 656.65 1227.00 648.00 C 1226.63 639.35 1227.21 630.68 1227.00 622.00 C 1226.79 613.32 1227.20 604.71 1227.00 596.00 C 1226.80 587.29 1227.32 577.67 1227.00 569.00 C 1226.68 560.33 1227.67 551.49 1227.00 543.00 C 1226.33 534.51 1228.48 525.18 1227.00 517.00 C 1225.53 508.82 1229.70 497.83 1228.00 491.00
C 1226.10 485.36 1218.39 488.81 1213.00 488.00 C 1207.61 487.19 1199.57 488.84 1194.00 488.00 C 1188.43 487.16 1180.25 489.42 1175.00 488.00 C 1169.75 486.58 1160.20 490.94 1156.00 488.00
C 1152.84 485.78 1155.41 475.12 1155.00 471.00 C 1154.59 466.88 1154.40 457.17 1155.00 453.00 C 1155.60 448.83 1152.70 437.31 1156.00 435.00
C 1160.58 431.79 1170.08 436.36 1176.00 435.00 C 1181.92 433.64 1190.49 435.61 1197.00 435.00 C 1203.51 434.39 1211.23 435.27 1218.00 435.00 C 1224.77 434.73 1232.12 435.10 1239.00 435.00 C 1245.88 434.90 1253.09 435.00 1260.00 435.00 C 1266.91 435.00 1274.12 434.89 1281.00 435.00 C 1287.88 435.11 1295.22 434.71 1302.00 435.00 C 1308.78 435.29 1316.47 434.34 1323.00 435.00 C 1329.53 435.66 1338.04 433.52 1344.00 435.00 C 1349.96 436.48 1360.31 431.71 1365.00 435.00
C 1368.17 437.22 1365.59 447.88 1366.00 452.00 C 1366.41 456.12 1366.60 465.83 1366.00 470.00 C 1365.40 474.17 1368.30 485.69 1365.00 488.00
M 440.00 722.00 
C 446.15 726.13 447.51 737.48 452.75 743.25 C 458.00 749.01 461.04 758.69 465.77 765.23 C 470.50 771.77 474.12 779.42 478.75 786.25 C 483.38 793.07 487.19 801.27 491.77 808.23 C 496.35 815.19 499.69 822.73 504.31 829.70 C 508.92 836.67 513.22 844.35 518.00 851.00
C 543.11 808.34 567.93 765.66 593.00 723.00
C 596.80 719.45 604.58 720.91 610.00 721.00 C 615.42 721.09 623.79 720.13 629.00 721.00 C 634.21 721.87 644.45 718.45 648.00 722.00
C 653.07 727.07 647.45 740.29 649.00 748.00 C 650.55 755.71 648.31 767.40 649.00 776.00 C 649.69 784.60 648.71 795.00 649.00 804.00 C 649.29 813.00 648.91 822.82 649.00 832.00 C 649.09 841.18 649.05 850.75 649.00 860.00 C 648.95 869.25 649.23 878.73 649.00 888.00 C 648.77 897.27 649.55 906.76 649.00 916.00 C 648.45 925.24 650.25 934.85 649.00 944.00
C 647.69 953.57 636.62 947.26 628.00 949.00 C 619.38 950.74 611.03 946.83 601.00 949.00 C 590.97 951.17 588.58 943.49 590.00 934.00 C 591.42 924.51 589.33 916.16 590.00 907.00 C 590.67 897.84 589.70 890.02 590.00 881.00 C 590.30 871.98 589.84 863.01 590.00 854.00 C 590.16 844.99 589.88 836.01 590.00 827.00
C 569.50 858.60 552.24 893.20 532.00 925.00
C 528.46 927.12 521.41 926.06 517.00 926.00 C 512.59 925.94 505.41 927.29 502.00 925.00
C 495.04 920.32 493.43 907.68 487.70 901.30 C 481.96 894.93 478.60 884.76 473.23 877.77 C 467.86 870.78 465.08 860.52 459.23 853.77 C 453.38 847.03 451.20 836.20 445.00 830.00
C 446.10 836.31 442.96 845.59 444.00 853.00 C 445.04 860.41 443.75 869.48 444.00 877.00 C 444.25 884.52 444.37 893.69 444.00 901.00 C 443.63 908.31 445.23 918.35 444.00 925.00 C 442.77 931.65 447.40 943.60 443.00 948.00
C 439.66 951.34 428.99 948.56 424.00 949.00 C 419.01 949.44 408.92 949.70 404.00 949.00 C 399.08 948.30 387.26 952.09 385.08 946.92 C 382.91 941.74 385.88 933.12 385.00 927.00 C 384.12 920.88 385.41 912.50 385.00 906.00 C 384.59 899.50 385.17 892.68 385.00 886.00 C 384.83 879.32 385.07 871.74 385.00 865.00 C 384.93 858.26 385.01 851.73 385.00 845.00 C 384.99 838.27 384.95 831.76 385.00 825.00 C 385.05 818.24 384.87 810.73 385.00 804.00 C 385.13 797.27 384.69 790.62 385.00 784.00 C 385.31 777.38 384.34 769.39 385.00 763.00 C 385.66 756.61 383.47 748.80 385.00 743.00 C 386.53 737.20 381.76 726.63 385.00 722.00
C 387.47 718.47 398.36 721.70 403.00 721.00 C 407.64 720.30 416.95 720.82 422.00 721.00 C 427.05 721.18 436.04 719.34 440.00 722.00
M 830.00 722.00 
C 835.79 726.52 835.19 738.07 839.78 744.22 C 844.36 750.38 846.29 760.04 849.92 767.08 C 853.56 774.11 857.08 782.25 860.31 789.70 C 863.53 797.14 867.58 804.66 870.77 812.23 C 873.96 819.80 877.51 827.54 880.92 835.08 C 884.33 842.61 887.60 850.34 891.25 857.75 C 894.91 865.15 897.56 873.24 901.31 880.69 C 905.05 888.15 908.56 895.57 911.77 903.23 C 914.98 910.89 918.72 918.41 921.92 926.08 C 925.13 933.74 929.73 941.14 932.00 949.00
C 920.27 948.58 904.31 949.55 893.00 949.00 C 881.69 948.45 864.56 953.29 861.23 940.77 C 857.90 928.25 852.99 925.79 849.69 913.31 C 846.40 900.83 830.52 903.36 819.00 904.00 C 807.48 904.64 790.97 902.63 780.00 904.00 C 769.03 905.37 749.84 898.35 746.22 910.22 C 742.61 922.10 738.05 925.18 735.08 938.08 C 732.10 950.97 719.19 949.94 706.00 949.00 C 692.81 948.06 679.22 949.70 666.00 949.00
C 699.48 873.37 732.58 796.96 767.00 722.00
C 771.80 718.94 780.89 721.29 787.00 721.00 C 793.11 720.71 802.94 720.34 809.00 721.00 C 815.06 721.66 825.50 718.48 830.00 722.00
M 1064.00 722.00 
C 1100.85 722.00 1139.35 741.01 1149.78 778.22 C 1160.21 815.44 1146.96 858.35 1110.00 874.00
C 1125.23 899.37 1144.77 923.25 1159.00 949.00
C 1142.08 950.81 1123.78 946.59 1107.00 949.00 C 1090.22 951.41 1084.78 939.35 1077.25 926.75 C 1069.71 914.16 1063.72 908.89 1056.75 895.25 C 1049.77 881.62 1028.65 886.44 1014.00 886.00
C 1014.57 894.56 1013.25 901.26 1014.00 910.00 C 1014.75 918.74 1012.60 925.74 1014.00 935.00 C 1015.40 944.26 1013.01 950.86 1003.00 949.00 C 992.99 947.14 987.21 949.97 978.00 949.00 C 968.79 948.03 961.99 949.73 953.00 949.00
C 945.68 946.53 951.28 928.43 950.00 920.00 C 948.72 911.57 950.56 896.84 950.00 887.00 C 949.44 877.17 950.22 864.46 950.00 854.00 C 949.78 843.54 950.02 831.73 950.00 821.00 C 949.98 810.27 949.84 798.81 950.00 788.00 C 950.16 777.19 949.56 765.77 950.00 755.00 C 950.44 744.23 948.94 733.68 950.00 723.00
C 954.18 717.62 965.63 722.34 972.00 721.00 C 978.37 719.66 987.92 721.66 995.00 721.00 C 1002.08 720.34 1010.61 721.42 1018.00 721.00 C 1025.39 720.58 1033.48 721.46 1041.00 721.00 C 1048.52 720.54 1057.23 721.35 1064.00 722.00
M 1365.00 722.00 
C 1368.54 725.54 1365.98 741.73 1366.00 747.00 C 1366.02 752.27 1368.50 768.50 1365.00 772.00
C 1360.68 776.32 1349.39 771.67 1343.00 773.00 C 1336.61 774.33 1327.00 772.31 1320.00 773.00 C 1313.00 773.69 1304.17 772.48 1297.00 773.00
C 1297.00 774.33 1297.00 775.67 1297.00 777.00
C 1298.17 834.31 1296.12 891.69 1297.00 949.00
C 1276.00 949.00 1255.00 949.00 1234.00 949.00
C 1234.00 890.33 1234.00 831.67 1234.00 773.00
C 1224.67 773.00 1215.33 773.00 1206.00 773.00
C 1194.02 773.00 1188.64 771.35 1176.00 773.00 C 1163.36 774.65 1164.01 763.97 1165.00 753.00 C 1165.99 742.03 1164.03 732.79 1165.00 722.00
C 1169.51 717.31 1182.10 722.44 1189.00 721.00 C 1195.90 719.56 1206.29 721.62 1214.00 721.00 C 1221.71 720.38 1230.90 721.22 1239.00 721.00 C 1247.10 720.78 1256.82 721.00 1265.00 721.00 C 1273.18 721.00 1281.95 720.75 1290.00 721.00 C 1298.05 721.25 1307.27 720.33 1315.00 721.00 C 1322.73 721.67 1333.00 719.47 1340.00 721.00 C 1347.00 722.53 1360.28 717.28 1365.00 722.00 Z"/>
</g>
<g fill="None" fill-opacity="0.0" stroke="#000100" stroke-opacity="1.00" stroke-width="0.3"><path d="
M 734.00 431.00 
C 728.00 431.00 722.00 431.00 716.00 431.00
C 647.78 431.00 591.93 488.07 592.00 556.00 C 592.07 623.93 648.96 680.00 717.00 680.00
C 723.00 680.00 729.00 680.00 735.00 680.00
C 778.69 678.79 820.46 657.88 842.75 618.75 C 865.03 579.61 865.63 523.80 839.00 486.00
C 851.78 469.96 864.91 435.78 844.23 419.77 C 823.55 403.76 796.32 426.20 782.00 441.00
C 767.50 434.20 750.75 431.00 734.00 431.00
M 833.00 476.00 
C 821.29 465.12 809.10 452.54 794.00 446.00
C 803.36 436.00 821.42 419.44 836.25 428.75 C 851.07 438.07 839.94 464.52 833.00 476.00
M 804.00 525.00 
C 804.63 531.51 805.61 539.50 804.00 546.00
C 800.81 558.87 786.08 569.21 776.75 578.75 C 767.42 588.30 756.21 600.81 746.25 609.25 C 736.29 617.68 728.08 634.86 715.77 638.77 C 703.46 642.68 689.23 620.03 681.00 613.00
C 670.67 604.17 661.53 593.53 652.00 584.00
C 644.60 577.68 642.72 569.95 649.00 562.00
C 656.23 552.85 665.84 545.16 674.00 537.00
C 686.90 521.90 698.29 515.05 710.75 498.75 C 723.21 482.45 744.13 472.12 766.00 478.00
C 766.40 486.79 767.79 494.88 762.08 501.08 C 756.38 507.28 761.71 516.98 768.08 519.92 C 774.44 522.87 785.03 519.95 787.30 512.30 C 789.57 504.65 786.06 495.65 778.00 494.00
C 776.66 488.84 776.68 483.18 778.00 478.00
C 787.86 477.26 803.10 476.21 803.00 489.00 C 802.89 501.80 804.97 512.15 804.00 525.00 Z"/>
</g>
<g fill="None" fill-opacity="0.0" stroke="#F8F9F8" stroke-opacity="1.00" stroke-width="0.3"><path d="
M 833.00 476.00 
C 839.94 464.52 851.07 438.07 836.25 428.75 C 821.42 419.44 803.36 436.00 794.00 446.00
C 809.10 452.54 821.29 465.12 833.00 476.00 Z"/>
</g>
<g fill="None" fill-opacity="0.0" stroke="#7D7E7C" stroke-opacity="1.00" stroke-width="0.3"><path d="
M 716.00 431.00 
C 722.00 431.00 728.00 431.00 734.00 431.00
C 728.40 430.46 721.67 430.45 716.00 431.00 Z"/>
</g>
<g fill="None" fill-opacity="0.0" stroke="#727371" stroke-opacity="1.00" stroke-width="0.3"><path d="
M 1001.00 431.00 
C 1008.33 430.85 1015.67 431.00 1023.00 431.00
C 1016.14 430.34 1007.95 430.16 1001.00 431.00 Z"/>
</g>
<g fill="None" fill-opacity="0.0" stroke="#000000" stroke-opacity="1.00" stroke-width="0.3"><path d="
M 1007.00 680.00 
C 1012.00 680.00 1017.00 680.00 1022.00 680.00
C 1090.11 680.00 1143.99 622.93 1144.00 556.00 C 1144.01 489.07 1091.42 431.00 1023.00 431.00
C 1015.67 431.00 1008.33 430.85 1001.00 431.00
C 932.94 432.36 881.20 492.05 883.00 559.00 C 884.80 625.95 939.31 680.00 1007.00 680.00
M 1023.00 487.00 
C 1072.34 492.96 1091.98 556.77 1065.25 596.25 C 1038.51 635.73 973.46 630.97 955.68 584.32 C 937.90 537.68 967.35 480.27 1023.00 487.00 Z"/>
</g>
<g fill="None" fill-opacity="0.0" stroke="#000000" stroke-opacity="1.00" stroke-width="0.3"><path d="
M 572.00 487.00 
C 572.00 469.67 572.00 452.33 572.00 435.00
C 509.67 435.00 447.33 435.00 385.00 435.00
C 385.00 515.00 385.00 595.00 385.00 675.00
C 407.33 675.00 429.67 675.00 452.00 675.00
C 452.00 647.00 452.00 619.00 452.00 591.00
C 487.67 591.00 523.33 591.00 559.00 591.00
C 559.00 573.67 559.00 556.33 559.00 539.00
C 523.33 539.00 487.67 539.00 452.00 539.00
C 452.00 521.67 452.00 504.33 452.00 487.00
C 458.63 486.95 465.38 487.07 472.00 487.00 C 478.62 486.93 485.43 487.14 492.00 487.00 C 498.57 486.86 505.54 487.29 512.00 487.00 C 518.46 486.71 525.78 487.64 532.00 487.00 C 538.22 486.36 546.32 488.41 552.00 487.00 C 557.68 485.59 567.53 490.13 572.00 487.00 Z"/>
</g>
<g fill="None" fill-opacity="0.0" stroke="#62615F" stroke-opacity="1.00" stroke-width="0.3"><path d="
M 572.00 487.00 
C 575.17 484.78 572.54 474.13 573.00 470.00 C 573.46 465.87 573.47 456.11 573.00 452.00 C 572.53 447.89 575.19 437.23 572.00 435.00
C 572.00 452.33 572.00 469.67 572.00 487.00 Z"/>
</g>
<g fill="None" fill-opacity="0.0" stroke="#61615F" stroke-opacity="1.00" stroke-width="0.3"><path d="
M 1156.00 488.00 
C 1156.00 470.33 1156.00 452.67 1156.00 435.00
C 1152.70 437.31 1155.60 448.83 1155.00 453.00 C 1154.40 457.17 1154.59 466.88 1155.00 471.00 C 1155.41 475.12 1152.84 485.78 1156.00 488.00 Z"/>
</g>
<g fill="None" fill-opacity="0.0" stroke="#000000" stroke-opacity="1.00" stroke-width="0.3"><path d="
M 1156.00 488.00 
C 1160.20 490.94 1169.75 486.58 1175.00 488.00 C 1180.25 489.42 1188.43 487.16 1194.00 488.00 C 1199.57 488.84 1207.61 487.19 1213.00 488.00 C 1218.39 488.81 1226.10 485.36 1228.00 491.00
C 1231.67 501.86 1226.43 515.40 1228.00 527.00 C 1229.57 538.60 1227.36 552.09 1228.00 564.00 C 1228.64 575.91 1227.92 587.93 1228.00 600.00 C 1228.08 612.07 1228.38 624.84 1228.00 637.00 C 1227.62 649.16 1229.10 661.87 1228.00 674.00
C 1235.39 679.50 1250.57 672.89 1260.00 675.00 C 1269.43 677.11 1283.17 673.42 1293.00 675.00
C 1294.52 638.25 1290.53 599.90 1294.00 564.00
C 1294.00 538.67 1294.00 513.33 1294.00 488.00
C 1299.83 487.79 1306.23 488.28 1312.00 488.00 C 1317.77 487.72 1324.44 488.54 1330.00 488.00 C 1335.56 487.46 1342.93 489.16 1348.00 488.00 C 1353.07 486.84 1361.09 490.74 1365.00 488.00
C 1365.00 470.33 1365.00 452.67 1365.00 435.00
C 1360.31 431.71 1349.96 436.48 1344.00 435.00 C 1338.04 433.52 1329.53 435.66 1323.00 435.00 C 1316.47 434.34 1308.78 435.29 1302.00 435.00 C 1295.22 434.71 1287.88 435.11 1281.00 435.00 C 1274.12 434.89 1266.91 435.00 1260.00 435.00 C 1253.09 435.00 1245.88 434.90 1239.00 435.00 C 1232.12 435.10 1224.77 434.73 1218.00 435.00 C 1211.23 435.27 1203.51 434.39 1197.00 435.00 C 1190.49 435.61 1181.92 433.64 1176.00 435.00 C 1170.08 436.36 1160.58 431.79 1156.00 435.00
C 1156.00 452.67 1156.00 470.33 1156.00 488.00 Z"/>
</g>
<g fill="None" fill-opacity="0.0" stroke="#7F7F7F" stroke-opacity="1.00" stroke-width="0.3"><path d="
M 1365.00 488.00 
C 1368.30 485.69 1365.40 474.17 1366.00 470.00 C 1366.60 465.83 1366.41 456.12 1366.00 452.00 C 1365.59 447.88 1368.17 437.22 1365.00 435.00
C 1365.00 452.67 1365.00 470.33 1365.00 488.00 Z"/>
</g>
<g fill="None" fill-opacity="0.0" stroke="#FCFCFB" stroke-opacity="1.00" stroke-width="0.3"><path d="
M 674.00 537.00 
C 666.38 545.92 656.87 553.48 649.00 562.00
C 642.72 569.95 644.60 577.68 652.00 584.00
C 662.33 592.83 671.47 603.47 681.00 613.00
C 689.23 620.03 703.46 642.68 715.77 638.77 C 728.08 634.86 736.29 617.68 746.25 609.25 C 756.21 600.81 767.42 588.30 776.75 578.75 C 786.08 569.21 800.81 558.87 804.00 546.00
C 804.84 539.24 804.00 531.82 804.00 525.00
C 804.97 512.15 802.89 501.80 803.00 489.00 C 803.10 476.21 787.86 477.26 778.00 478.00
C 776.68 483.18 776.66 488.84 778.00 494.00
C 786.06 495.65 789.57 504.65 787.30 512.30 C 785.03 519.95 774.44 522.87 768.08 519.92 C 761.71 516.98 756.38 507.28 762.08 501.08 C 767.79 494.88 766.40 486.79 766.00 478.00
C 744.13 472.12 723.21 482.45 710.75 498.75 C 698.29 515.05 686.90 521.90 674.00 537.00 Z"/>
</g>
<g fill="None" fill-opacity="0.0" stroke="#FCFCFB" stroke-opacity="1.00" stroke-width="0.3"><path d="
M 1023.00 487.00 
C 967.35 480.27 937.90 537.68 955.68 584.32 C 973.46 630.97 1038.51 635.73 1065.25 596.25 C 1091.98 556.77 1072.34 492.96 1023.00 487.00 Z"/>
</g>
<g fill="None" fill-opacity="0.0" stroke="#7F7880" stroke-opacity="1.00" stroke-width="0.3"><path d="
M 1227.00 674.00 
C 1227.00 674.04 1228.00 674.00 1228.00 674.00
C 1229.10 661.87 1227.62 649.16 1228.00 637.00 C 1228.38 624.84 1228.08 612.07 1228.00 600.00 C 1227.92 587.93 1228.64 575.91 1228.00 564.00 C 1227.36 552.09 1229.57 538.60 1228.00 527.00 C 1226.43 515.40 1231.67 501.86 1228.00 491.00
C 1229.70 497.83 1225.53 508.82 1227.00 517.00 C 1228.48 525.18 1226.33 534.51 1227.00 543.00 C 1227.67 551.49 1226.68 560.33 1227.00 569.00 C 1227.32 577.67 1226.80 587.29 1227.00 596.00 C 1227.20 604.71 1226.79 613.32 1227.00 622.00 C 1227.21 630.68 1226.63 639.35 1227.00 648.00 C 1227.37 656.65 1226.24 665.39 1227.00 674.00 Z"/>
</g>
<g fill="None" fill-opacity="0.0" stroke="#7B7A7B" stroke-opacity="1.00" stroke-width="0.3"><path d="
M 804.00 546.00 
C 805.61 539.50 804.63 531.51 804.00 525.00
C 804.00 531.82 804.84 539.24 804.00 546.00 Z"/>
</g>
<g fill="None" fill-opacity="0.0" stroke="#6B6B69" stroke-opacity="1.00" stroke-width="0.3"><path d="
M 649.00 562.00 
C 656.87 553.48 666.38 545.92 674.00 537.00
C 665.84 545.16 656.23 552.85 649.00 562.00 Z"/>
</g>
<g fill="None" fill-opacity="0.0" stroke="#575E5A" stroke-opacity="1.00" stroke-width="0.3"><path d="
M 1293.00 675.00 
C 1298.12 669.88 1292.36 655.73 1294.00 648.00 C 1295.64 640.27 1293.29 628.59 1294.00 620.00 C 1294.71 611.41 1293.73 600.94 1294.00 592.00 C 1294.27 583.06 1294.00 573.04 1294.00 564.00
C 1290.53 599.90 1294.52 638.25 1293.00 675.00 Z"/>
</g>
<g fill="None" fill-opacity="0.0" stroke="#7B7C78" stroke-opacity="1.00" stroke-width="0.3"><path d="
M 681.00 613.00 
C 671.47 603.47 662.33 592.83 652.00 584.00
C 661.53 593.53 670.67 604.17 681.00 613.00 Z"/>
</g>
<g fill="None" fill-opacity="0.0" stroke="#9E9E9F" stroke-opacity="1.00" stroke-width="0.3"><path d="
M 1293.00 675.00 
C 1283.17 673.42 1269.43 677.11 1260.00 675.00 C 1250.57 672.89 1235.39 679.50 1228.00 674.00
C 1228.00 674.00 1227.00 674.04 1227.00 674.00
C 1227.92 678.30 1239.06 675.45 1243.00 676.00 C 1246.94 676.55 1255.41 676.03 1260.00 676.00 C 1264.59 675.97 1272.47 676.62 1277.00 676.00 C 1281.53 675.38 1289.90 678.10 1293.00 675.00 Z"/>
</g>
<g fill="None" fill-opacity="0.0" stroke="#8B8B8B" stroke-opacity="1.00" stroke-width="0.3"><path d="
M 735.00 680.00 
C 729.00 680.00 723.00 680.00 717.00 680.00
C 722.60 680.54 729.33 680.55 735.00 680.00 Z"/>
</g>
<g fill="None" fill-opacity="0.0" stroke="#8A8A8D" stroke-opacity="1.00" stroke-width="0.3"><path d="
M 1022.00 680.00 
C 1017.00 680.00 1012.00 680.00 1007.00 680.00
C 1011.65 680.45 1017.28 680.46 1022.00 680.00 Z"/>
</g>
<g fill="None" fill-opacity="0.0" stroke="#8F908D" stroke-opacity="1.00" stroke-width="0.3"><path d="
M 385.00 722.00 
C 393.49 723.41 403.68 720.12 412.00 722.00 C 420.32 723.88 432.38 718.52 440.00 722.00
C 436.04 719.34 427.05 721.18 422.00 721.00 C 416.95 720.82 407.64 720.30 403.00 721.00 C 398.36 721.70 387.47 718.47 385.00 722.00 Z"/>
</g>
<g fill="None" fill-opacity="0.0" stroke="#91928E" stroke-opacity="1.00" stroke-width="0.3"><path d="
M 593.00 723.00 
C 599.94 718.38 611.76 723.64 620.00 722.00 C 628.24 720.36 639.49 723.23 648.00 722.00
C 644.45 718.45 634.21 721.87 629.00 721.00 C 623.79 720.13 615.42 721.09 610.00 721.00 C 604.58 720.91 596.80 719.45 593.00 723.00 Z"/>
</g>
<g fill="None" fill-opacity="0.0" stroke="#848582" stroke-opacity="1.00" stroke-width="0.3"><path d="
M 767.00 722.00 
C 772.42 719.66 782.02 722.58 788.00 722.00 C 793.98 721.42 803.12 721.20 809.00 722.00 C 814.88 722.80 824.98 719.29 830.00 722.00
C 825.50 718.48 815.06 721.66 809.00 721.00 C 802.94 720.34 793.11 720.71 787.00 721.00 C 780.89 721.29 771.80 718.94 767.00 722.00 Z"/>
</g>
<g fill="None" fill-opacity="0.0" stroke="#888986" stroke-opacity="1.00" stroke-width="0.3"><path d="
M 950.00 722.00 
C 950.00 721.96 951.00 722.00 951.00 722.00
C 988.67 722.00 1026.33 722.00 1064.00 722.00
C 1057.23 721.35 1048.52 720.54 1041.00 721.00 C 1033.48 721.46 1025.39 720.58 1018.00 721.00 C 1010.61 721.42 1002.08 720.34 995.00 721.00 C 987.92 721.66 978.37 719.66 972.00 721.00 C 965.63 722.34 954.18 717.62 950.00 722.00 Z"/>
</g>
<g fill="None" fill-opacity="0.0" stroke="#82837F" stroke-opacity="1.00" stroke-width="0.3"><path d="
M 1165.00 722.00 
C 1165.00 721.96 1166.00 722.00 1166.00 722.00
C 1172.49 722.00 1178.46 722.00 1185.00 722.00 C 1191.54 722.00 1198.39 721.99 1205.00 722.00 C 1211.61 722.01 1218.37 721.99 1225.00 722.00 C 1231.63 722.01 1238.36 721.97 1245.00 722.00 C 1251.64 722.03 1258.38 721.94 1265.00 722.00 C 1271.62 722.06 1278.43 721.87 1285.00 722.00 C 1291.57 722.13 1298.54 721.71 1305.00 722.00 C 1311.46 722.29 1318.78 721.36 1325.00 722.00 C 1331.22 722.64 1339.32 720.59 1345.00 722.00 C 1350.68 723.41 1360.53 718.87 1365.00 722.00
C 1360.28 717.28 1347.00 722.53 1340.00 721.00 C 1333.00 719.47 1322.73 721.67 1315.00 721.00 C 1307.27 720.33 1298.05 721.25 1290.00 721.00 C 1281.95 720.75 1273.18 721.00 1265.00 721.00 C 1256.82 721.00 1247.10 720.78 1239.00 721.00 C 1230.90 721.22 1221.71 720.38 1214.00 721.00 C 1206.29 721.62 1195.90 719.56 1189.00 721.00 C 1182.10 722.44 1169.51 717.31 1165.00 722.00 Z"/>
</g>
<g fill="None" fill-opacity="0.0" stroke="#000000" stroke-opacity="1.00" stroke-width="0.3"><path d="
M 443.00 948.00 
C 446.13 943.53 441.59 933.68 443.00 928.00 C 444.41 922.32 442.36 914.22 443.00 908.00 C 443.64 901.78 442.71 894.46 443.00 888.00 C 443.29 881.54 442.86 874.57 443.00 868.00 C 443.14 861.43 442.93 854.62 443.00 848.00 C 443.07 841.38 442.95 834.63 443.00 828.00
C 443.83 828.41 444.87 828.97 445.00 830.00
C 451.20 836.20 453.38 847.03 459.23 853.77 C 465.08 860.52 467.86 870.78 473.23 877.77 C 478.60 884.76 481.96 894.93 487.70 901.30 C 493.43 907.68 495.04 920.32 502.00 925.00
C 505.46 926.58 513.11 924.94 517.00 925.00 C 520.89 925.06 528.43 926.44 532.00 925.00
C 552.24 893.20 569.50 858.60 590.00 827.00
C 589.88 836.01 590.16 844.99 590.00 854.00 C 589.84 863.01 590.30 871.98 590.00 881.00 C 589.70 890.02 590.67 897.84 590.00 907.00 C 589.33 916.16 591.42 924.51 590.00 934.00 C 588.58 943.49 590.97 951.17 601.00 949.00 C 611.03 946.83 619.38 950.74 628.00 949.00 C 636.62 947.26 647.69 953.57 649.00 944.00
C 650.45 908.07 646.51 870.86 648.00 834.00 C 649.49 797.14 646.88 758.98 648.00 722.00
C 639.49 723.23 628.24 720.36 620.00 722.00 C 611.76 723.64 599.94 718.38 593.00 723.00
C 567.93 765.66 543.11 808.34 518.00 851.00
C 513.22 844.35 508.92 836.67 504.31 829.70 C 499.69 822.73 496.35 815.19 491.77 808.23 C 487.19 801.27 483.38 793.07 478.75 786.25 C 474.12 779.42 470.50 771.77 465.77 765.23 C 461.04 758.69 458.00 749.01 452.75 743.25 C 447.51 737.48 446.15 726.13 440.00 722.00
C 432.38 718.52 420.32 723.88 412.00 722.00 C 403.68 720.12 393.49 723.41 385.00 722.00
C 381.76 726.63 386.53 737.20 385.00 743.00 C 383.47 748.80 385.66 756.61 385.00 763.00 C 384.34 769.39 385.31 777.38 385.00 784.00 C 384.69 790.62 385.13 797.27 385.00 804.00 C 384.87 810.73 385.05 818.24 385.00 825.00 C 384.95 831.76 384.99 838.27 385.00 845.00 C 385.01 851.73 384.93 858.26 385.00 865.00 C 385.07 871.74 384.83 879.32 385.00 886.00 C 385.17 892.68 384.59 899.50 385.00 906.00 C 385.41 912.50 384.12 920.88 385.00 927.00 C 385.88 933.12 382.91 941.74 385.08 946.92 C 387.26 952.09 399.08 948.30 404.00 949.00 C 408.92 949.70 419.01 949.44 424.00 949.00 C 428.99 948.56 439.66 951.34 443.00 948.00 Z"/>
</g>
<g fill="None" fill-opacity="0.0" stroke="#585A55" stroke-opacity="1.00" stroke-width="0.3"><path d="
M 649.00 944.00 
C 650.25 934.85 648.45 925.24 649.00 916.00 C 649.55 906.76 648.77 897.27 649.00 888.00 C 649.23 878.73 648.95 869.25 649.00 860.00 C 649.05 850.75 649.09 841.18 649.00 832.00 C 648.91 822.82 649.29 813.00 649.00 804.00 C 648.71 795.00 649.69 784.60 649.00 776.00 C 648.31 767.40 650.55 755.71 649.00 748.00 C 647.45 740.29 653.07 727.07 648.00 722.00
C 646.88 758.98 649.49 797.14 648.00 834.00 C 646.51 870.86 650.45 908.07 649.00 944.00 Z"/>
</g>
<g fill="None" fill-opacity="0.0" stroke="#000000" stroke-opacity="1.00" stroke-width="0.3"><path d="
M 830.00 722.00 
C 824.98 719.29 814.88 722.80 809.00 722.00 C 803.12 721.20 793.98 721.42 788.00 722.00 C 782.02 722.58 772.42 719.66 767.00 722.00
C 732.58 796.96 699.48 873.37 666.00 949.00
C 679.22 949.70 692.81 948.06 706.00 949.00 C 719.19 949.94 732.10 950.97 735.08 938.08 C 738.05 925.18 742.61 922.10 746.22 910.22 C 749.84 898.35 769.03 905.37 780.00 904.00 C 790.97 902.63 807.48 904.64 819.00 904.00 C 830.52 903.36 846.40 900.83 849.69 913.31 C 852.99 925.79 857.90 928.25 861.23 940.77 C 864.56 953.29 881.69 948.45 893.00 949.00 C 904.31 949.55 920.27 948.58 932.00 949.00
C 929.73 941.14 925.13 933.74 921.92 926.08 C 918.72 918.41 914.98 910.89 911.77 903.23 C 908.56 895.57 905.05 888.15 901.31 880.69 C 897.56 873.24 894.91 865.15 891.25 857.75 C 887.60 850.34 884.33 842.61 880.92 835.08 C 877.51 827.54 873.96 819.80 870.77 812.23 C 867.58 804.66 863.53 797.14 860.31 789.70 C 857.08 782.25 853.56 774.11 849.92 767.08 C 846.29 760.04 844.36 750.38 839.78 744.22 C 835.19 738.07 835.79 726.52 830.00 722.00
M 827.00 856.00 
C 824.66 859.83 811.79 856.05 807.00 857.00 C 802.21 857.95 791.14 856.82 786.00 857.00 C 780.86 857.18 769.16 858.39 769.00 855.00
C 768.65 847.31 776.47 838.95 778.32 831.32 C 780.17 823.70 785.17 815.48 787.92 807.92 C 790.68 800.36 794.28 790.50 799.00 785.00
C 806.47 809.19 818.04 832.23 827.00 856.00 Z"/>
</g>
<g fill="None" fill-opacity="0.0" stroke="#5E5E5D" stroke-opacity="1.00" stroke-width="0.3"><path d="
M 953.00 949.00 
C 947.41 946.21 952.20 932.53 951.00 926.00 C 949.80 919.47 951.52 908.65 951.00 901.00 C 950.48 893.35 951.25 883.11 951.00 875.00 C 950.75 866.89 951.12 858.34 951.00 850.00 C 950.88 841.67 951.08 832.43 951.00 824.00 C 950.92 815.57 951.09 807.47 951.00 799.00 C 950.91 790.53 951.16 781.49 951.00 773.00 C 950.84 764.51 951.35 756.50 951.00 748.00 C 950.65 739.50 951.75 730.50 951.00 722.00
C 951.00 722.00 950.00 721.96 950.00 722.00
C 948.94 733.68 950.44 744.23 950.00 755.00 C 949.56 765.77 950.16 777.19 950.00 788.00 C 949.84 798.81 949.98 810.27 950.00 821.00 C 950.02 831.73 949.78 843.54 950.00 854.00 C 950.22 864.46 949.44 877.17 950.00 887.00 C 950.56 896.84 948.72 911.57 950.00 920.00 C 951.28 928.43 945.68 946.53 953.00 949.00 Z"/>
</g>
<g fill="None" fill-opacity="0.0" stroke="#000000" stroke-opacity="1.00" stroke-width="0.3"><path d="
M 953.00 949.00 
C 961.99 949.73 968.79 948.03 978.00 949.00 C 987.21 949.97 992.99 947.14 1003.00 949.00 C 1013.01 950.86 1015.40 944.26 1014.00 935.00 C 1012.60 925.74 1014.75 918.74 1014.00 910.00 C 1013.25 901.26 1014.57 894.56 1014.00 886.00
C 1028.65 886.44 1049.77 881.62 1056.75 895.25 C 1063.72 908.89 1069.71 914.16 1077.25 926.75 C 1084.78 939.35 1090.22 951.41 1107.00 949.00 C 1123.78 946.59 1142.08 950.81 1159.00 949.00
C 1144.77 923.25 1125.23 899.37 1110.00 874.00
C 1146.96 858.35 1160.21 815.44 1149.78 778.22 C 1139.35 741.01 1100.85 722.00 1064.00 722.00
C 1026.33 722.00 988.67 722.00 951.00 722.00
C 951.75 730.50 950.65 739.50 951.00 748.00 C 951.35 756.50 950.84 764.51 951.00 773.00 C 951.16 781.49 950.91 790.53 951.00 799.00 C 951.09 807.47 950.92 815.57 951.00 824.00 C 951.08 832.43 950.88 841.67 951.00 850.00 C 951.12 858.34 950.75 866.89 951.00 875.00 C 951.25 883.11 950.48 893.35 951.00 901.00 C 951.52 908.65 949.80 919.47 951.00 926.00 C 952.20 932.53 947.41 946.21 953.00 949.00
M 1054.00 836.00 
C 1043.94 836.97 1031.99 836.97 1022.00 836.00
C 1019.33 836.00 1016.67 836.00 1014.00 836.00
C 1014.00 814.33 1014.00 792.67 1014.00 771.00
C 1037.24 772.56 1070.87 764.21 1085.30 786.70 C 1099.74 809.19 1078.70 838.53 1054.00 836.00 Z"/>
</g>
<g fill="None" fill-opacity="0.0" stroke="#5D5D5D" stroke-opacity="1.00" stroke-width="0.3"><path d="
M 1206.00 773.00 
C 1205.96 773.00 1206.00 772.00 1206.00 772.00
C 1192.66 772.00 1179.34 772.00 1166.00 772.00
C 1166.00 755.33 1166.00 738.67 1166.00 722.00
C 1166.00 722.00 1165.00 721.96 1165.00 722.00
C 1164.03 732.79 1165.99 742.03 1165.00 753.00 C 1164.01 763.97 1163.36 774.65 1176.00 773.00 C 1188.64 771.35 1194.02 773.00 1206.00 773.00 Z"/>
</g>
<g fill="None" fill-opacity="0.0" stroke="#000000" stroke-opacity="1.00" stroke-width="0.3"><path d="
M 1206.00 772.00 
C 1209.92 772.00 1216.33 771.38 1220.00 772.00 C 1223.67 772.62 1231.92 770.03 1234.00 773.00
C 1234.00 831.67 1234.00 890.33 1234.00 949.00
C 1255.00 949.00 1276.00 949.00 1297.00 949.00
C 1296.12 891.69 1298.17 834.31 1297.00 777.00
C 1296.86 770.08 1301.48 772.42 1308.00 772.00 C 1314.52 771.58 1320.92 772.68 1327.00 772.00 C 1333.08 771.32 1340.52 773.38 1346.00 772.00 C 1351.48 770.62 1360.69 775.02 1365.00 772.00
C 1368.50 768.50 1366.02 752.27 1366.00 747.00 C 1365.98 741.73 1368.54 725.54 1365.00 722.00
C 1360.53 718.87 1350.68 723.41 1345.00 722.00 C 1339.32 720.59 1331.22 722.64 1325.00 722.00 C 1318.78 721.36 1311.46 722.29 1305.00 722.00 C 1298.54 721.71 1291.57 722.13 1285.00 722.00 C 1278.43 721.87 1271.62 722.06 1265.00 722.00 C 1258.38 721.94 1251.64 722.03 1245.00 722.00 C 1238.36 721.97 1231.63 722.01 1225.00 722.00 C 1218.37 721.99 1211.61 722.01 1205.00 722.00 C 1198.39 721.99 1191.54 722.00 1185.00 722.00 C 1178.46 722.00 1172.49 722.00 1166.00 722.00
C 1166.00 738.67 1166.00 755.33 1166.00 772.00
C 1179.34 772.00 1192.66 772.00 1206.00 772.00 Z"/>
</g>
<g fill="None" fill-opacity="0.0" stroke="#FBFBF9" stroke-opacity="1.00" stroke-width="0.3"><path d="
M 1022.00 836.00 
C 1032.67 836.00 1043.33 836.00 1054.00 836.00
C 1078.70 838.53 1099.74 809.19 1085.30 786.70 C 1070.87 764.21 1037.24 772.56 1014.00 771.00
C 1014.00 792.67 1014.00 814.33 1014.00 836.00
C 1016.67 836.00 1019.33 836.00 1022.00 836.00 Z"/>
</g>
<g fill="None" fill-opacity="0.0" stroke="#7B7B7A" stroke-opacity="1.00" stroke-width="0.3"><path d="
M 1206.00 773.00 
C 1215.33 773.00 1224.67 773.00 1234.00 773.00
C 1231.92 770.03 1223.67 772.62 1220.00 772.00 C 1216.33 771.38 1209.92 772.00 1206.00 772.00
C 1206.00 772.00 1205.96 773.00 1206.00 773.00 Z"/>
</g>
<g fill="None" fill-opacity="0.0" stroke="#626261" stroke-opacity="1.00" stroke-width="0.3"><path d="
M 1297.00 777.00 
C 1297.00 775.67 1297.00 774.33 1297.00 773.00
C 1304.17 772.48 1313.00 773.69 1320.00 773.00 C 1327.00 772.31 1336.61 774.33 1343.00 773.00 C 1349.39 771.67 1360.68 776.32 1365.00 772.00
C 1360.69 775.02 1351.48 770.62 1346.00 772.00 C 1340.52 773.38 1333.08 771.32 1327.00 772.00 C 1320.92 772.68 1314.52 771.58 1308.00 772.00 C 1301.48 772.42 1296.86 770.08 1297.00 777.00 Z"/>
</g>
<g fill="None" fill-opacity="0.0" stroke="#F9F9F8" stroke-opacity="1.00" stroke-width="0.3"><path d="
M 769.00 855.00 
C 771.38 858.88 781.99 854.94 787.00 856.00 C 792.01 857.06 801.20 855.45 807.00 856.00 C 812.80 856.55 820.98 855.59 827.00 856.00
C 818.04 832.23 806.47 809.19 799.00 785.00
C 794.28 790.50 790.68 800.36 787.92 807.92 C 785.17 815.48 780.17 823.70 778.32 831.32 C 776.47 838.95 768.65 847.31 769.00 855.00 Z"/>
</g>
<g fill="None" fill-opacity="0.0" stroke="#848583" stroke-opacity="1.00" stroke-width="0.3"><path d="
M 443.00 948.00 
C 447.40 943.60 442.77 931.65 444.00 925.00 C 445.23 918.35 443.63 908.31 444.00 901.00 C 444.37 893.69 444.25 884.52 444.00 877.00 C 443.75 869.48 445.04 860.41 444.00 853.00 C 442.96 845.59 446.10 836.31 445.00 830.00
C 444.87 828.97 443.83 828.41 443.00 828.00
C 442.95 834.63 443.07 841.38 443.00 848.00 C 442.93 854.62 443.14 861.43 443.00 868.00 C 442.86 874.57 443.29 881.54 443.00 888.00 C 442.71 894.46 443.64 901.78 443.00 908.00 C 442.36 914.22 444.41 922.32 443.00 928.00 C 441.59 933.68 446.13 943.53 443.00 948.00 Z"/>
</g>
<g fill="None" fill-opacity="0.0" stroke="#646462" stroke-opacity="1.00" stroke-width="0.3"><path d="
M 1054.00 836.00 
C 1043.33 836.00 1032.67 836.00 1022.00 836.00
C 1031.99 836.97 1043.94 836.97 1054.00 836.00 Z"/>
</g>
<g fill="None" fill-opacity="0.0" stroke="#90908D" stroke-opacity="1.00" stroke-width="0.3"><path d="
M 827.00 856.00 
C 820.98 855.59 812.80 856.55 807.00 856.00 C 801.20 855.45 792.01 857.06 787.00 856.00 C 781.99 854.94 771.38 858.88 769.00 855.00
C 769.16 858.39 780.86 857.18 786.00 857.00 C 791.14 856.82 802.21 857.95 807.00 857.00 C 811.79 856.05 824.66 859.83 827.00 856.00 Z"/>
</g>
<g fill="None" fill-opacity="0.0" stroke="#696A68" stroke-opacity="1.00" stroke-width="0.3"><path d="
M 532.00 925.00 
C 528.43 926.44 520.89 925.06 517.00 925.00 C 513.11 924.94 505.46 926.58 502.00 925.00
C 505.41 927.29 512.59 925.94 517.00 926.00 C 521.41 926.06 528.46 927.12 532.00 925.00 Z"/>
</g>
<g fill="#FEFEFE" fill-opacity="1.00" stroke="None">
<path d="
M 0.00 1481.00 
L 1728.00 1481.00
L 1728.00 0.00
L 0.00 0.00
L 0.00 1481.00
M 735.00 680.00 
C 729.33 680.55 722.60 680.54 717.00 680.00
C 648.96 680.00 592.07 623.93 592.00 556.00 C 591.93 488.07 647.78 431.00 716.00 431.00
C 721.67 430.45 728.40 430.46 734.00 431.00
C 750.75 431.00 767.50 434.20 782.00 441.00
C 796.32 426.20 823.55 403.76 844.23 419.77 C 864.91 435.78 851.78 469.96 839.00 486.00
C 865.63 523.80 865.03 579.61 842.75 618.75 C 820.46 657.88 778.69 678.79 735.00 680.00
M 1023.00 431.00 
C 1091.42 431.00 1144.01 489.07 1144.00 556.00 C 1143.99 622.93 1090.11 680.00 1022.00 680.00
C 1017.28 680.46 1011.65 680.45 1007.00 680.00
C 939.31 680.00 884.80 625.95 883.00 559.00 C 881.20 492.05 932.94 432.36 1001.00 431.00
C 1007.95 430.16 1016.14 430.34 1023.00 431.00
M 572.00 487.00 
C 567.53 490.13 557.68 485.59 552.00 487.00 C 546.32 488.41 538.22 486.36 532.00 487.00 C 525.78 487.64 518.46 486.71 512.00 487.00 C 505.54 487.29 498.57 486.86 492.00 487.00 C 485.43 487.14 478.62 486.93 472.00 487.00 C 465.38 487.07 458.63 486.95 452.00 487.00
C 452.00 504.33 452.00 521.67 452.00 539.00
C 487.67 539.00 523.33 539.00 559.00 539.00
C 559.00 556.33 559.00 573.67 559.00 591.00
C 523.33 591.00 487.67 591.00 452.00 591.00
C 452.00 619.00 452.00 647.00 452.00 675.00
C 429.67 675.00 407.33 675.00 385.00 675.00
C 385.00 595.00 385.00 515.00 385.00 435.00
C 447.33 435.00 509.67 435.00 572.00 435.00
C 575.19 437.23 572.53 447.89 573.00 452.00 C 573.47 456.11 573.46 465.87 573.00 470.00 C 572.54 474.13 575.17 484.78 572.00 487.00
M 1365.00 488.00 
C 1361.09 490.74 1353.07 486.84 1348.00 488.00 C 1342.93 489.16 1335.56 487.46 1330.00 488.00 C 1324.44 488.54 1317.77 487.72 1312.00 488.00 C 1306.23 488.28 1299.83 487.79 1294.00 488.00
C 1294.00 513.33 1294.00 538.67 1294.00 564.00
C 1294.00 573.04 1294.27 583.06 1294.00 592.00 C 1293.73 600.94 1294.71 611.41 1294.00 620.00 C 1293.29 628.59 1295.64 640.27 1294.00 648.00 C 1292.36 655.73 1298.12 669.88 1293.00 675.00
C 1289.90 678.10 1281.53 675.38 1277.00 676.00 C 1272.47 676.62 1264.59 675.97 1260.00 676.00 C 1255.41 676.03 1246.94 676.55 1243.00 676.00 C 1239.06 675.45 1227.92 678.30 1227.00 674.00
C 1226.24 665.39 1227.37 656.65 1227.00 648.00 C 1226.63 639.35 1227.21 630.68 1227.00 622.00 C 1226.79 613.32 1227.20 604.71 1227.00 596.00 C 1226.80 587.29 1227.32 577.67 1227.00 569.00 C 1226.68 560.33 1227.67 551.49 1227.00 543.00 C 1226.33 534.51 1228.48 525.18 1227.00 517.00 C 1225.53 508.82 1229.70 497.83 1228.00 491.00
C 1226.10 485.36 1218.39 488.81 1213.00 488.00 C 1207.61 487.19 1199.57 488.84 1194.00 488.00 C 1188.43 487.16 1180.25 489.42 1175.00 488.00 C 1169.75 486.58 1160.20 490.94 1156.00 488.00
C 1152.84 485.78 1155.41 475.12 1155.00 471.00 C 1154.59 466.88 1154.40 457.17 1155.00 453.00 C 1155.60 448.83 1152.70 437.31 1156.00 435.00
C 1160.58 431.79 1170.08 436.36 1176.00 435.00 C 1181.92 433.64 1190.49 435.61 1197.00 435.00 C 1203.51 434.39 1211.23 435.27 1218.00 435.00 C 1224.77 434.73 1232.12 435.10 1239.00 435.00 C 1245.88 434.90 1253.09 435.00 1260.00 435.00 C 1266.91 435.00 1274.12 434.89 1281.00 435.00 C 1287.88 435.11 1295.22 434.71 1302.00 435.00 C 1308.78 435.29 1316.47 434.34 1323.00 435.00 C 1329.53 435.66 1338.04 433.52 1344.00 435.00 C 1349.96 436.48 1360.31 431.71 1365.00 435.00
C 1368.17 437.22 1365.59 447.88 1366.00 452.00 C 1366.41 456.12 1366.60 465.83 1366.00 470.00 C 1365.40 474.17 1368.30 485.69 1365.00 488.00
M 440.00 722.00 
C 446.15 726.13 447.51 737.48 452.75 743.25 C 458.00 749.01 461.04 758.69 465.77 765.23 C 470.50 771.77 474.12 779.42 478.75 786.25 C 483.38 793.07 487.19 801.27 491.77 808.23 C 496.35 815.19 499.69 822.73 504.31 829.70 C 508.92 836.67 513.22 844.35 518.00 851.00
C 543.11 808.34 567.93 765.66 593.00 723.00
C 596.80 719.45 604.58 720.91 610.00 721.00 C 615.42 721.09 623.79 720.13 629.00 721.00 C 634.21 721.87 644.45 718.45 648.00 722.00
C 653.07 727.07 647.45 740.29 649.00 748.00 C 650.55 755.71 648.31 767.40 649.00 776.00 C 649.69 784.60 648.71 795.00 649.00 804.00 C 649.29 813.00 648.91 822.82 649.00 832.00 C 649.09 841.18 649.05 850.75 649.00 860.00 C 648.95 869.25 649.23 878.73 649.00 888.00 C 648.77 897.27 649.55 906.76 649.00 916.00 C 648.45 925.24 650.25 934.85 649.00 944.00
C 647.69 953.57 636.62 947.26 628.00 949.00 C 619.38 950.74 611.03 946.83 601.00 949.00 C 590.97 951.17 588.58 943.49 590.00 934.00 C 591.42 924.51 589.33 916.16 590.00 907.00 C 590.67 897.84 589.70 890.02 590.00 881.00 C 590.30 871.98 589.84 863.01 590.00 854.00 C 590.16 844.99 589.88 836.01 590.00 827.00
C 569.50 858.60 552.24 893.20 532.00 925.00
C 528.46 927.12 521.41 926.06 517.00 926.00 C 512.59 925.94 505.41 927.29 502.00 925.00
C 495.04 920.32 493.43 907.68 487.70 901.30 C 481.96 894.93 478.60 884.76 473.23 877.77 C 467.86 870.78 465.08 860.52 459.23 853.77 C 453.38 847.03 451.20 836.20 445.00 830.00
C 446.10 836.31 442.96 845.59 444.00 853.00 C 445.04 860.41 443.75 869.48 444.00 877.00 C 444.25 884.52 444.37 893.69 444.00 901.00 C 443.63 908.31 445.23 918.35 444.00 925.00 C 442.77 931.65 447.40 943.60 443.00 948.00
C 439.66 951.34 428.99 948.56 424.00 949.00 C 419.01 949.44 408.92 949.70 404.00 949.00 C 399.08 948.30 387.26 952.09 385.08 946.92 C 382.91 941.74 385.88 933.12 385.00 927.00 C 384.12 920.88 385.41 912.50 385.00 906.00 C 384.59 899.50 385.17 892.68 385.00 886.00 C 384.83 879.32 385.07 871.74 385.00 865.00 C 384.93 858.26 385.01 851.73 385.00 845.00 C 384.99 838.27 384.95 831.76 385.00 825.00 C 385.05 818.24 384.87 810.73 385.00 804.00 C 385.13 797.27 384.69 790.62 385.00 784.00 C 385.31 777.38 384.34 769.39 385.00 763.00 C 385.66 756.61 383.47 748.80 385.00 743.00 C 386.53 737.20 381.76 726.63 385.00 722.00
C 387.47 718.47 398.36 721.70 403.00 721.00 C 407.64 720.30 416.95 720.82 422.00 721.00 C 427.05 721.18 436.04 719.34 440.00 722.00
M 830.00 722.00 
C 835.79 726.52 835.19 738.07 839.78 744.22 C 844.36 750.38 846.29 760.04 849.92 767.08 C 853.56 774.11 857.08 782.25 860.31 789.70 C 863.53 797.14 867.58 804.66 870.77 812.23 C 873.96 819.80 877.51 827.54 880.92 835.08 C 884.33 842.61 887.60 850.34 891.25 857.75 C 894.91 865.15 897.56 873.24 901.31 880.69 C 905.05 888.15 908.56 895.57 911.77 903.23 C 914.98 910.89 918.72 918.41 921.92 926.08 C 925.13 933.74 929.73 941.14 932.00 949.00
C 920.27 948.58 904.31 949.55 893.00 949.00 C 881.69 948.45 864.56 953.29 861.23 940.77 C 857.90 928.25 852.99 925.79 849.69 913.31 C 846.40 900.83 830.52 903.36 819.00 904.00 C 807.48 904.64 790.97 902.63 780.00 904.00 C 769.03 905.37 749.84 898.35 746.22 910.22 C 742.61 922.10 738.05 925.18 735.08 938.08 C 732.10 950.97 719.19 949.94 706.00 949.00 C 692.81 948.06 679.22 949.70 666.00 949.00
C 699.48 873.37 732.58 796.96 767.00 722.00
C 771.80 718.94 780.89 721.29 787.00 721.00 C 793.11 720.71 802.94 720.34 809.00 721.00 C 815.06 721.66 825.50 718.48 830.00 722.00
M 1064.00 722.00 
C 1100.85 722.00 1139.35 741.01 1149.78 778.22 C 1160.21 815.44 1146.96 858.35 1110.00 874.00
C 1125.23 899.37 1144.77 923.25 1159.00 949.00
C 1142.08 950.81 1123.78 946.59 1107.00 949.00 C 1090.22 951.41 1084.78 939.35 1077.25 926.75 C 1069.71 914.16 1063.72 908.89 1056.75 895.25 C 1049.77 881.62 1028.65 886.44 1014.00 886.00
C 1014.57 894.56 1013.25 901.26 1014.00 910.00 C 1014.75 918.74 1012.60 925.74 1014.00 935.00 C 1015.40 944.26 1013.01 950.86 1003.00 949.00 C 992.99 947.14 987.21 949.97 978.00 949.00 C 968.79 948.03 961.99 949.73 953.00 949.00
C 945.68 946.53 951.28 928.43 950.00 920.00 C 948.72 911.57 950.56 896.84 950.00 887.00 C 949.44 877.17 950.22 864.46 950.00 854.00 C 949.78 843.54 950.02 831.73 950.00 821.00 C 949.98 810.27 949.84 798.81 950.00 788.00 C 950.16 777.19 949.56 765.77 950.00 755.00 C 950.44 744.23 948.94 733.68 950.00 723.00
C 954.18 717.62 965.63 722.34 972.00 721.00 C 978.37 719.66 987.92 721.66 995.00 721.00 C 1002.08 720.34 1010.61 721.42 1018.00 721.00 C 1025.39 720.58 1033.48 721.46 1041.00 721.00 C 1048.52 720.54 1057.23 721.35 1064.00 722.00
M 1365.00 722.00 
C 1368.54 725.54 1365.98 741.73 1366.00 747.00 C 1366.02 752.27 1368.50 768.50 1365.00 772.00
C 1360.68 776.32 1349.39 771.67 1343.00 773.00 C 1336.61 774.33 1327.00 772.31 1320.00 773.00 C 1313.00 773.69 1304.17 772.48 1297.00 773.00
C 1297.00 774.33 1297.00 775.67 1297.00 777.00
C 1298.17 834.31 1296.12 891.69 1297.00 949.00
C 1276.00 949.00 1255.00 949.00 1234.00 949.00
C 1234.00 890.33 1234.00 831.67 1234.00 773.00
C 1224.67 773.00 1215.33 773.00 1206.00 773.00
C 1194.02 773.00 1188.64 771.35 1176.00 773.00 C 1163.36 774.65 1164.01 763.97 1165.00 753.00 C 1165.99 742.03 1164.03 732.79 1165.00 722.00
C 1169.51 717.31 1182.10 722.44 1189.00 721.00 C 1195.90 719.56 1206.29 721.62 1214.00 721.00 C 1221.71 720.38 1230.90 721.22 1239.00 721.00 C 1247.10 720.78 1256.82 721.00 1265.00 721.00 C 1273.18 721.00 1281.95 720.75 1290.00 721.00 C 1298.05 721.25 1307.27 720.33 1315.00 721.00 C 1322.73 721.67 1333.00 719.47 1340.00 721.00 C 1347.00 722.53 1360.28 717.28 1365.00 722.00 Z"/>
</g>
<g fill="#000100" fill-opacity="1.00" stroke="None">
<path d="
M 734.00 431.00 
C 728.00 431.00 722.00 431.00 716.00 431.00
C 647.78 431.00 591.93 488.07 592.00 556.00 C 592.07 623.93 648.96 680.00 717.00 680.00
C 723.00 680.00 729.00 680.00 735.00 680.00
C 778.69 678.79 820.46 657.88 842.75 618.75 C 865.03 579.61 865.63 523.80 839.00 486.00
C 851.78 469.96 864.91 435.78 844.23 419.77 C 823.55 403.76 796.32 426.20 782.00 441.00
C 767.50 434.20 750.75 431.00 734.00 431.00
M 833.00 476.00 
C 821.29 465.12 809.10 452.54 794.00 446.00
C 803.36 436.00 821.42 419.44 836.25 428.75 C 851.07 438.07 839.94 464.52 833.00 476.00
M 804.00 525.00 
C 804.63 531.51 805.61 539.50 804.00 546.00
C 800.81 558.87 786.08 569.21 776.75 578.75 C 767.42 588.30 756.21 600.81 746.25 609.25 C 736.29 617.68 728.08 634.86 715.77 638.77 C 703.46 642.68 689.23 620.03 681.00 613.00
C 670.67 604.17 661.53 593.53 652.00 584.00
C 644.60 577.68 642.72 569.95 649.00 562.00
C 656.23 552.85 665.84 545.16 674.00 537.00
C 686.90 521.90 698.29 515.05 710.75 498.75 C 723.21 482.45 744.13 472.12 766.00 478.00
C 766.40 486.79 767.79 494.88 762.08 501.08 C 756.38 507.28 761.71 516.98 768.08 519.92 C 774.44 522.87 785.03 519.95 787.30 512.30 C 789.57 504.65 786.06 495.65 778.00 494.00
C 776.66 488.84 776.68 483.18 778.00 478.00
C 787.86 477.26 803.10 476.21 803.00 489.00 C 802.89 501.80 804.97 512.15 804.00 525.00 Z"/>
</g>
<g fill="#F8F9F8" fill-opacity="1.00" stroke="None">
<path d="
M 833.00 476.00 
C 839.94 464.52 851.07 438.07 836.25 428.75 C 821.42 419.44 803.36 436.00 794.00 446.00
C 809.10 452.54 821.29 465.12 833.00 476.00 Z"/>
</g>
<g fill="#7D7E7C" fill-opacity="1.00" stroke="None">
<path d="
M 716.00 431.00 
C 722.00 431.00 728.00 431.00 734.00 431.00
C 728.40 430.46 721.67 430.45 716.00 431.00 Z"/>
</g>
<g fill="#727371" fill-opacity="1.00" stroke="None">
<path d="
M 1001.00 431.00 
C 1008.33 430.85 1015.67 431.00 1023.00 431.00
C 1016.14 430.34 1007.95 430.16 1001.00 431.00 Z"/>
</g>
<g fill="#000000" fill-opacity="1.00" stroke="None">
<path d="
M 1007.00 680.00 
C 1012.00 680.00 1017.00 680.00 1022.00 680.00
C 1090.11 680.00 1143.99 622.93 1144.00 556.00 C 1144.01 489.07 1091.42 431.00 1023.00 431.00
C 1015.67 431.00 1008.33 430.85 1001.00 431.00
C 932.94 432.36 881.20 492.05 883.00 559.00 C 884.80 625.95 939.31 680.00 1007.00 680.00
M 1023.00 487.00 
C 1072.34 492.96 1091.98 556.77 1065.25 596.25 C 1038.51 635.73 973.46 630.97 955.68 584.32 C 937.90 537.68 967.35 480.27 1023.00 487.00 Z"/>
</g>
<g fill="#000000" fill-opacity="1.00" stroke="None">
<path d="
M 572.00 487.00 
C 572.00 469.67 572.00 452.33 572.00 435.00
C 509.67 435.00 447.33 435.00 385.00 435.00
C 385.00 515.00 385.00 595.00 385.00 675.00
C 407.33 675.00 429.67 675.00 452.00 675.00
C 452.00 647.00 452.00 619.00 452.00 591.00
C 487.67 591.00 523.33 591.00 559.00 591.00
C 559.00 573.67 559.00 556.33 559.00 539.00
C 523.33 539.00 487.67 539.00 452.00 539.00
C 452.00 521.67 452.00 504.33 452.00 487.00
C 458.63 486.95 465.38 487.07 472.00 487.00 C 478.62 486.93 485.43 487.14 492.00 487.00 C 498.57 486.86 505.54 487.29 512.00 487.00 C 518.46 486.71 525.78 487.64 532.00 487.00 C 538.22 486.36 546.32 488.41 552.00 487.00 C 557.68 485.59 567.53 490.13 572.00 487.00 Z"/>
</g>
<g fill="#62615F" fill-opacity="1.00" stroke="None">
<path d="
M 572.00 487.00 
C 575.17 484.78 572.54 474.13 573.00 470.00 C 573.46 465.87 573.47 456.11 573.00 452.00 C 572.53 447.89 575.19 437.23 572.00 435.00
C 572.00 452.33 572.00 469.67 572.00 487.00 Z"/>
</g>
<g fill="#61615F" fill-opacity="1.00" stroke="None">
<path d="
M 1156.00 488.00 
C 1156.00 470.33 1156.00 452.67 1156.00 435.00
C 1152.70 437.31 1155.60 448.83 1155.00 453.00 C 1154.40 457.17 1154.59 466.88 1155.00 471.00 C 1155.41 475.12 1152.84 485.78 1156.00 488.00 Z"/>
</g>
<g fill="#000000" fill-opacity="1.00" stroke="None">
<path d="
M 1156.00 488.00 
C 1160.20 490.94 1169.75 486.58 1175.00 488.00 C 1180.25 489.42 1188.43 487.16 1194.00 488.00 C 1199.57 488.84 1207.61 487.19 1213.00 488.00 C 1218.39 488.81 1226.10 485.36 1228.00 491.00
C 1231.67 501.86 1226.43 515.40 1228.00 527.00 C 1229.57 538.60 1227.36 552.09 1228.00 564.00 C 1228.64 575.91 1227.92 587.93 1228.00 600.00 C 1228.08 612.07 1228.38 624.84 1228.00 637.00 C 1227.62 649.16 1229.10 661.87 1228.00 674.00
C 1235.39 679.50 1250.57 672.89 1260.00 675.00 C 1269.43 677.11 1283.17 673.42 1293.00 675.00
C 1294.52 638.25 1290.53 599.90 1294.00 564.00
C 1294.00 538.67 1294.00 513.33 1294.00 488.00
C 1299.83 487.79 1306.23 488.28 1312.00 488.00 C 1317.77 487.72 1324.44 488.54 1330.00 488.00 C 1335.56 487.46 1342.93 489.16 1348.00 488.00 C 1353.07 486.84 1361.09 490.74 1365.00 488.00
C 1365.00 470.33 1365.00 452.67 1365.00 435.00
C 1360.31 431.71 1349.96 436.48 1344.00 435.00 C 1338.04 433.52 1329.53 435.66 1323.00 435.00 C 1316.47 434.34 1308.78 435.29 1302.00 435.00 C 1295.22 434.71 1287.88 435.11 1281.00 435.00 C 1274.12 434.89 1266.91 435.00 1260.00 435.00 C 1253.09 435.00 1245.88 434.90 1239.00 435.00 C 1232.12 435.10 1224.77 434.73 1218.00 435.00 C 1211.23 435.27 1203.51 434.39 1197.00 435.00 C 1190.49 435.61 1181.92 433.64 1176.00 435.00 C 1170.08 436.36 1160.58 431.79 1156.00 435.00
C 1156.00 452.67 1156.00 470.33 1156.00 488.00 Z"/>
</g>
<g fill="#7F7F7F" fill-opacity="1.00" stroke="None">
<path d="
M 1365.00 488.00 
C 1368.30 485.69 1365.40 474.17 1366.00 470.00 C 1366.60 465.83 1366.41 456.12 1366.00 452.00 C 1365.59 447.88 1368.17 437.22 1365.00 435.00
C 1365.00 452.67 1365.00 470.33 1365.00 488.00 Z"/>
</g>
<g fill="#FCFCFB" fill-opacity="1.00" stroke="None">
<path d="
M 674.00 537.00 
C 666.38 545.92 656.87 553.48 649.00 562.00
C 642.72 569.95 644.60 577.68 652.00 584.00
C 662.33 592.83 671.47 603.47 681.00 613.00
C 689.23 620.03 703.46 642.68 715.77 638.77 C 728.08 634.86 736.29 617.68 746.25 609.25 C 756.21 600.81 767.42 588.30 776.75 578.75 C 786.08 569.21 800.81 558.87 804.00 546.00
C 804.84 539.24 804.00 531.82 804.00 525.00
C 804.97 512.15 802.89 501.80 803.00 489.00 C 803.10 476.21 787.86 477.26 778.00 478.00
C 776.68 483.18 776.66 488.84 778.00 494.00
C 786.06 495.65 789.57 504.65 787.30 512.30 C 785.03 519.95 774.44 522.87 768.08 519.92 C 761.71 516.98 756.38 507.28 762.08 501.08 C 767.79 494.88 766.40 486.79 766.00 478.00
C 744.13 472.12 723.21 482.45 710.75 498.75 C 698.29 515.05 686.90 521.90 674.00 537.00 Z"/>
</g>
<g fill="#FCFCFB" fill-opacity="1.00" stroke="None">
<path d="
M 1023.00 487.00 
C 967.35 480.27 937.90 537.68 955.68 584.32 C 973.46 630.97 1038.51 635.73 1065.25 596.25 C 1091.98 556.77 1072.34 492.96 1023.00 487.00 Z"/>
</g>
<g fill="#7F7880" fill-opacity="1.00" stroke="None">
<path d="
M 1227.00 674.00 
C 1227.00 674.04 1228.00 674.00 1228.00 674.00
C 1229.10 661.87 1227.62 649.16 1228.00 637.00 C 1228.38 624.84 1228.08 612.07 1228.00 600.00 C 1227.92 587.93 1228.64 575.91 1228.00 564.00 C 1227.36 552.09 1229.57 538.60 1228.00 527.00 C 1226.43 515.40 1231.67 501.86 1228.00 491.00
C 1229.70 497.83 1225.53 508.82 1227.00 517.00 C 1228.48 525.18 1226.33 534.51 1227.00 543.00 C 1227.67 551.49 1226.68 560.33 1227.00 569.00 C 1227.32 577.67 1226.80 587.29 1227.00 596.00 C 1227.20 604.71 1226.79 613.32 1227.00 622.00 C 1227.21 630.68 1226.63 639.35 1227.00 648.00 C 1227.37 656.65 1226.24 665.39 1227.00 674.00 Z"/>
</g>
<g fill="#7B7A7B" fill-opacity="1.00" stroke="None">
<path d="
M 804.00 546.00 
C 805.61 539.50 804.63 531.51 804.00 525.00
C 804.00 531.82 804.84 539.24 804.00 546.00 Z"/>
</g>
<g fill="#6B6B69" fill-opacity="1.00" stroke="None">
<path d="
M 649.00 562.00 
C 656.87 553.48 666.38 545.92 674.00 537.00
C 665.84 545.16 656.23 552.85 649.00 562.00 Z"/>
</g>
<g fill="#575E5A" fill-opacity="1.00" stroke="None">
<path d="
M 1293.00 675.00 
C 1298.12 669.88 1292.36 655.73 1294.00 648.00 C 1295.64 640.27 1293.29 628.59 1294.00 620.00 C 1294.71 611.41 1293.73 600.94 1294.00 592.00 C 1294.27 583.06 1294.00 573.04 1294.00 564.00
C 1290.53 599.90 1294.52 638.25 1293.00 675.00 Z"/>
</g>
<g fill="#7B7C78" fill-opacity="1.00" stroke="None">
<path d="
M 681.00 613.00 
C 671.47 603.47 662.33 592.83 652.00 584.00
C 661.53 593.53 670.67 604.17 681.00 613.00 Z"/>
</g>
<g fill="#9E9E9F" fill-opacity="1.00" stroke="None">
<path d="
M 1293.00 675.00 
C 1283.17 673.42 1269.43 677.11 1260.00 675.00 C 1250.57 672.89 1235.39 679.50 1228.00 674.00
C 1228.00 674.00 1227.00 674.04 1227.00 674.00
C 1227.92 678.30 1239.06 675.45 1243.00 676.00 C 1246.94 676.55 1255.41 676.03 1260.00 676.00 C 1264.59 675.97 1272.47 676.62 1277.00 676.00 C 1281.53 675.38 1289.90 678.10 1293.00 675.00 Z"/>
</g>
<g fill="#8B8B8B" fill-opacity="1.00" stroke="None">
<path d="
M 735.00 680.00 
C 729.00 680.00 723.00 680.00 717.00 680.00
C 722.60 680.54 729.33 680.55 735.00 680.00 Z"/>
</g>
<g fill="#8A8A8D" fill-opacity="1.00" stroke="None">
<path d="
M 1022.00 680.00 
C 1017.00 680.00 1012.00 680.00 1007.00 680.00
C 1011.65 680.45 1017.28 680.46 1022.00 680.00 Z"/>
</g>
<g fill="#8F908D" fill-opacity="1.00" stroke="None">
<path d="
M 385.00 722.00 
C 393.49 723.41 403.68 720.12 412.00 722.00 C 420.32 723.88 432.38 718.52 440.00 722.00
C 436.04 719.34 427.05 721.18 422.00 721.00 C 416.95 720.82 407.64 720.30 403.00 721.00 C 398.36 721.70 387.47 718.47 385.00 722.00 Z"/>
</g>
<g fill="#91928E" fill-opacity="1.00" stroke="None">
<path d="
M 593.00 723.00 
C 599.94 718.38 611.76 723.64 620.00 722.00 C 628.24 720.36 639.49 723.23 648.00 722.00
C 644.45 718.45 634.21 721.87 629.00 721.00 C 623.79 720.13 615.42 721.09 610.00 721.00 C 604.58 720.91 596.80 719.45 593.00 723.00 Z"/>
</g>
<g fill="#848582" fill-opacity="1.00" stroke="None">
<path d="
M 767.00 722.00 
C 772.42 719.66 782.02 722.58 788.00 722.00 C 793.98 721.42 803.12 721.20 809.00 722.00 C 814.88 722.80 824.98 719.29 830.00 722.00
C 825.50 718.48 815.06 721.66 809.00 721.00 C 802.94 720.34 793.11 720.71 787.00 721.00 C 780.89 721.29 771.80 718.94 767.00 722.00 Z"/>
</g>
<g fill="#888986" fill-opacity="1.00" stroke="None">
<path d="
M 950.00 722.00 
C 950.00 721.96 951.00 722.00 951.00 722.00
C 988.67 722.00 1026.33 722.00 1064.00 722.00
C 1057.23 721.35 1048.52 720.54 1041.00 721.00 C 1033.48 721.46 1025.39 720.58 1018.00 721.00 C 1010.61 721.42 1002.08 720.34 995.00 721.00 C 987.92 721.66 978.37 719.66 972.00 721.00 C 965.63 722.34 954.18 717.62 950.00 722.00 Z"/>
</g>
<g fill="#82837F" fill-opacity="1.00" stroke="None">
<path d="
M 1165.00 722.00 
C 1165.00 721.96 1166.00 722.00 1166.00 722.00
C 1172.49 722.00 1178.46 722.00 1185.00 722.00 C 1191.54 722.00 1198.39 721.99 1205.00 722.00 C 1211.61 722.01 1218.37 721.99 1225.00 722.00 C 1231.63 722.01 1238.36 721.97 1245.00 722.00 C 1251.64 722.03 1258.38 721.94 1265.00 722.00 C 1271.62 722.06 1278.43 721.87 1285.00 722.00 C 1291.57 722.13 1298.54 721.71 1305.00 722.00 C 1311.46 722.29 1318.78 721.36 1325.00 722.00 C 1331.22 722.64 1339.32 720.59 1345.00 722.00 C 1350.68 723.41 1360.53 718.87 1365.00 722.00
C 1360.28 717.28 1347.00 722.53 1340.00 721.00 C 1333.00 719.47 1322.73 721.67 1315.00 721.00 C 1307.27 720.33 1298.05 721.25 1290.00 721.00 C 1281.95 720.75 1273.18 721.00 1265.00 721.00 C 1256.82 721.00 1247.10 720.78 1239.00 721.00 C 1230.90 721.22 1221.71 720.38 1214.00 721.00 C 1206.29 721.62 1195.90 719.56 1189.00 721.00 C 1182.10 722.44 1169.51 717.31 1165.00 722.00 Z"/>
</g>
<g fill="#000000" fill-opacity="1.00" stroke="None">
<path d="
M 443.00 948.00 
C 446.13 943.53 441.59 933.68 443.00 928.00 C 444.41 922.32 442.36 914.22 443.00 908.00 C 443.64 901.78 442.71 894.46 443.00 888.00 C 443.29 881.54 442.86 874.57 443.00 868.00 C 443.14 861.43 442.93 854.62 443.00 848.00 C 443.07 841.38 442.95 834.63 443.00 828.00
C 443.83 828.41 444.87 828.97 445.00 830.00
C 451.20 836.20 453.38 847.03 459.23 853.77 C 465.08 860.52 467.86 870.78 473.23 877.77 C 478.60 884.76 481.96 894.93 487.70 901.30 C 493.43 907.68 495.04 920.32 502.00 925.00
C 505.46 926.58 513.11 924.94 517.00 925.00 C 520.89 925.06 528.43 926.44 532.00 925.00
C 552.24 893.20 569.50 858.60 590.00 827.00
C 589.88 836.01 590.16 844.99 590.00 854.00 C 589.84 863.01 590.30 871.98 590.00 881.00 C 589.70 890.02 590.67 897.84 590.00 907.00 C 589.33 916.16 591.42 924.51 590.00 934.00 C 588.58 943.49 590.97 951.17 601.00 949.00 C 611.03 946.83 619.38 950.74 628.00 949.00 C 636.62 947.26 647.69 953.57 649.00 944.00
C 650.45 908.07 646.51 870.86 648.00 834.00 C 649.49 797.14 646.88 758.98 648.00 722.00
C 639.49 723.23 628.24 720.36 620.00 722.00 C 611.76 723.64 599.94 718.38 593.00 723.00
C 567.93 765.66 543.11 808.34 518.00 851.00
C 513.22 844.35 508.92 836.67 504.31 829.70 C 499.69 822.73 496.35 815.19 491.77 808.23 C 487.19 801.27 483.38 793.07 478.75 786.25 C 474.12 779.42 470.50 771.77 465.77 765.23 C 461.04 758.69 458.00 749.01 452.75 743.25 C 447.51 737.48 446.15 726.13 440.00 722.00
C 432.38 718.52 420.32 723.88 412.00 722.00 C 403.68 720.12 393.49 723.41 385.00 722.00
C 381.76 726.63 386.53 737.20 385.00 743.00 C 383.47 748.80 385.66 756.61 385.00 763.00 C 384.34 769.39 385.31 777.38 385.00 784.00 C 384.69 790.62 385.13 797.27 385.00 804.00 C 384.87 810.73 385.05 818.24 385.00 825.00 C 384.95 831.76 384.99 838.27 385.00 845.00 C 385.01 851.73 384.93 858.26 385.00 865.00 C 385.07 871.74 384.83 879.32 385.00 886.00 C 385.17 892.68 384.59 899.50 385.00 906.00 C 385.41 912.50 384.12 920.88 385.00 927.00 C 385.88 933.12 382.91 941.74 385.08 946.92 C 387.26 952.09 399.08 948.30 404.00 949.00 C 408.92 949.70 419.01 949.44 424.00 949.00 C 428.99 948.56 439.66 951.34 443.00 948.00 Z"/>
</g>
<g fill="#585A55" fill-opacity="1.00" stroke="None">
<path d="
M 649.00 944.00 
C 650.25 934.85 648.45 925.24 649.00 916.00 C 649.55 906.76 648.77 897.27 649.00 888.00 C 649.23 878.73 648.95 869.25 649.00 860.00 C 649.05 850.75 649.09 841.18 649.00 832.00 C 648.91 822.82 649.29 813.00 649.00 804.00 C 648.71 795.00 649.69 784.60 649.00 776.00 C 648.31 767.40 650.55 755.71 649.00 748.00 C 647.45 740.29 653.07 727.07 648.00 722.00
C 646.88 758.98 649.49 797.14 648.00 834.00 C 646.51 870.86 650.45 908.07 649.00 944.00 Z"/>
</g>
<g fill="#000000" fill-opacity="1.00" stroke="None">
<path d="
M 830.00 722.00 
C 824.98 719.29 814.88 722.80 809.00 722.00 C 803.12 721.20 793.98 721.42 788.00 722.00 C 782.02 722.58 772.42 719.66 767.00 722.00
C 732.58 796.96 699.48 873.37 666.00 949.00
C 679.22 949.70 692.81 948.06 706.00 949.00 C 719.19 949.94 732.10 950.97 735.08 938.08 C 738.05 925.18 742.61 922.10 746.22 910.22 C 749.84 898.35 769.03 905.37 780.00 904.00 C 790.97 902.63 807.48 904.64 819.00 904.00 C 830.52 903.36 846.40 900.83 849.69 913.31 C 852.99 925.79 857.90 928.25 861.23 940.77 C 864.56 953.29 881.69 948.45 893.00 949.00 C 904.31 949.55 920.27 948.58 932.00 949.00
C 929.73 941.14 925.13 933.74 921.92 926.08 C 918.72 918.41 914.98 910.89 911.77 903.23 C 908.56 895.57 905.05 888.15 901.31 880.69 C 897.56 873.24 894.91 865.15 891.25 857.75 C 887.60 850.34 884.33 842.61 880.92 835.08 C 877.51 827.54 873.96 819.80 870.77 812.23 C 867.58 804.66 863.53 797.14 860.31 789.70 C 857.08 782.25 853.56 774.11 849.92 767.08 C 846.29 760.04 844.36 750.38 839.78 744.22 C 835.19 738.07 835.79 726.52 830.00 722.00
M 827.00 856.00 
C 824.66 859.83 811.79 856.05 807.00 857.00 C 802.21 857.95 791.14 856.82 786.00 857.00 C 780.86 857.18 769.16 858.39 769.00 855.00
C 768.65 847.31 776.47 838.95 778.32 831.32 C 780.17 823.70 785.17 815.48 787.92 807.92 C 790.68 800.36 794.28 790.50 799.00 785.00
C 806.47 809.19 818.04 832.23 827.00 856.00 Z"/>
</g>
<g fill="#5E5E5D" fill-opacity="1.00" stroke="None">
<path d="
M 953.00 949.00 
C 947.41 946.21 952.20 932.53 951.00 926.00 C 949.80 919.47 951.52 908.65 951.00 901.00 C 950.48 893.35 951.25 883.11 951.00 875.00 C 950.75 866.89 951.12 858.34 951.00 850.00 C 950.88 841.67 951.08 832.43 951.00 824.00 C 950.92 815.57 951.09 807.47 951.00 799.00 C 950.91 790.53 951.16 781.49 951.00 773.00 C 950.84 764.51 951.35 756.50 951.00 748.00 C 950.65 739.50 951.75 730.50 951.00 722.00
C 951.00 722.00 950.00 721.96 950.00 722.00
C 948.94 733.68 950.44 744.23 950.00 755.00 C 949.56 765.77 950.16 777.19 950.00 788.00 C 949.84 798.81 949.98 810.27 950.00 821.00 C 950.02 831.73 949.78 843.54 950.00 854.00 C 950.22 864.46 949.44 877.17 950.00 887.00 C 950.56 896.84 948.72 911.57 950.00 920.00 C 951.28 928.43 945.68 946.53 953.00 949.00 Z"/>
</g>
<g fill="#000000" fill-opacity="1.00" stroke="None">
<path d="
M 953.00 949.00 
C 961.99 949.73 968.79 948.03 978.00 949.00 C 987.21 949.97 992.99 947.14 1003.00 949.00 C 1013.01 950.86 1015.40 944.26 1014.00 935.00 C 1012.60 925.74 1014.75 918.74 1014.00 910.00 C 1013.25 901.26 1014.57 894.56 1014.00 886.00
C 1028.65 886.44 1049.77 881.62 1056.75 895.25 C 1063.72 908.89 1069.71 914.16 1077.25 926.75 C 1084.78 939.35 1090.22 951.41 1107.00 949.00 C 1123.78 946.59 1142.08 950.81 1159.00 949.00
C 1144.77 923.25 1125.23 899.37 1110.00 874.00
C 1146.96 858.35 1160.21 815.44 1149.78 778.22 C 1139.35 741.01 1100.85 722.00 1064.00 722.00
C 1026.33 722.00 988.67 722.00 951.00 722.00
C 951.75 730.50 950.65 739.50 951.00 748.00 C 951.35 756.50 950.84 764.51 951.00 773.00 C 951.16 781.49 950.91 790.53 951.00 799.00 C 951.09 807.47 950.92 815.57 951.00 824.00 C 951.08 832.43 950.88 841.67 951.00 850.00 C 951.12 858.34 950.75 866.89 951.00 875.00 C 951.25 883.11 950.48 893.35 951.00 901.00 C 951.52 908.65 949.80 919.47 951.00 926.00 C 952.20 932.53 947.41 946.21 953.00 949.00
M 1054.00 836.00 
C 1043.94 836.97 1031.99 836.97 1022.00 836.00
C 1019.33 836.00 1016.67 836.00 1014.00 836.00
C 1014.00 814.33 1014.00 792.67 1014.00 771.00
C 1037.24 772.56 1070.87 764.21 1085.30 786.70 C 1099.74 809.19 1078.70 838.53 1054.00 836.00 Z"/>
</g>
<g fill="#5D5D5D" fill-opacity="1.00" stroke="None">
<path d="
M 1206.00 773.00 
C 1205.96 773.00 1206.00 772.00 1206.00 772.00
C 1192.66 772.00 1179.34 772.00 1166.00 772.00
C 1166.00 755.33 1166.00 738.67 1166.00 722.00
C 1166.00 722.00 1165.00 721.96 1165.00 722.00
C 1164.03 732.79 1165.99 742.03 1165.00 753.00 C 1164.01 763.97 1163.36 774.65 1176.00 773.00 C 1188.64 771.35 1194.02 773.00 1206.00 773.00 Z"/>
</g>
<g fill="#000000" fill-opacity="1.00" stroke="None">
<path d="
M 1206.00 772.00 
C 1209.92 772.00 1216.33 771.38 1220.00 772.00 C 1223.67 772.62 1231.92 770.03 1234.00 773.00
C 1234.00 831.67 1234.00 890.33 1234.00 949.00
C 1255.00 949.00 1276.00 949.00 1297.00 949.00
C 1296.12 891.69 1298.17 834.31 1297.00 777.00
C 1296.86 770.08 1301.48 772.42 1308.00 772.00 C 1314.52 771.58 1320.92 772.68 1327.00 772.00 C 1333.08 771.32 1340.52 773.38 1346.00 772.00 C 1351.48 770.62 1360.69 775.02 1365.00 772.00
C 1368.50 768.50 1366.02 752.27 1366.00 747.00 C 1365.98 741.73 1368.54 725.54 1365.00 722.00
C 1360.53 718.87 1350.68 723.41 1345.00 722.00 C 1339.32 720.59 1331.22 722.64 1325.00 722.00 C 1318.78 721.36 1311.46 722.29 1305.00 722.00 C 1298.54 721.71 1291.57 722.13 1285.00 722.00 C 1278.43 721.87 1271.62 722.06 1265.00 722.00 C 1258.38 721.94 1251.64 722.03 1245.00 722.00 C 1238.36 721.97 1231.63 722.01 1225.00 722.00 C 1218.37 721.99 1211.61 722.01 1205.00 722.00 C 1198.39 721.99 1191.54 722.00 1185.00 722.00 C 1178.46 722.00 1172.49 722.00 1166.00 722.00
C 1166.00 738.67 1166.00 755.33 1166.00 772.00
C 1179.34 772.00 1192.66 772.00 1206.00 772.00 Z"/>
</g>
<g fill="#FBFBF9" fill-opacity="1.00" stroke="None">
<path d="
M 1022.00 836.00 
C 1032.67 836.00 1043.33 836.00 1054.00 836.00
C 1078.70 838.53 1099.74 809.19 1085.30 786.70 C 1070.87 764.21 1037.24 772.56 1014.00 771.00
C 1014.00 792.67 1014.00 814.33 1014.00 836.00
C 1016.67 836.00 1019.33 836.00 1022.00 836.00 Z"/>
</g>
<g fill="#7B7B7A" fill-opacity="1.00" stroke="None">
<path d="
M 1206.00 773.00 
C 1215.33 773.00 1224.67 773.00 1234.00 773.00
C 1231.92 770.03 1223.67 772.62 1220.00 772.00 C 1216.33 771.38 1209.92 772.00 1206.00 772.00
C 1206.00 772.00 1205.96 773.00 1206.00 773.00 Z"/>
</g>
<g fill="#626261" fill-opacity="1.00" stroke="None">
<path d="
M 1297.00 777.00 
C 1297.00 775.67 1297.00 774.33 1297.00 773.00
C 1304.17 772.48 1313.00 773.69 1320.00 773.00 C 1327.00 772.31 1336.61 774.33 1343.00 773.00 C 1349.39 771.67 1360.68 776.32 1365.00 772.00
C 1360.69 775.02 1351.48 770.62 1346.00 772.00 C 1340.52 773.38 1333.08 771.32 1327.00 772.00 C 1320.92 772.68 1314.52 771.58 1308.00 772.00 C 1301.48 772.42 1296.86 770.08 1297.00 777.00 Z"/>
</g>
<g fill="#F9F9F8" fill-opacity="1.00" stroke="None">
<path d="
M 769.00 855.00 
C 771.38 858.88 781.99 854.94 787.00 856.00 C 792.01 857.06 801.20 855.45 807.00 856.00 C 812.80 856.55 820.98 855.59 827.00 856.00
C 818.04 832.23 806.47 809.19 799.00 785.00
C 794.28 790.50 790.68 800.36 787.92 807.92 C 785.17 815.48 780.17 823.70 778.32 831.32 C 776.47 838.95 768.65 847.31 769.00 855.00 Z"/>
</g>
<g fill="#848583" fill-opacity="1.00" stroke="None">
<path d="
M 443.00 948.00 
C 447.40 943.60 442.77 931.65 444.00 925.00 C 445.23 918.35 443.63 908.31 444.00 901.00 C 444.37 893.69 444.25 884.52 444.00 877.00 C 443.75 869.48 445.04 860.41 444.00 853.00 C 442.96 845.59 446.10 836.31 445.00 830.00
C 444.87 828.97 443.83 828.41 443.00 828.00
C 442.95 834.63 443.07 841.38 443.00 848.00 C 442.93 854.62 443.14 861.43 443.00 868.00 C 442.86 874.57 443.29 881.54 443.00 888.00 C 442.71 894.46 443.64 901.78 443.00 908.00 C 442.36 914.22 444.41 922.32 443.00 928.00 C 441.59 933.68 446.13 943.53 443.00 948.00 Z"/>
</g>
<g fill="#646462" fill-opacity="1.00" stroke="None">
<path d="
M 1054.00 836.00 
C 1043.33 836.00 1032.67 836.00 1022.00 836.00
C 1031.99 836.97 1043.94 836.97 1054.00 836.00 Z"/>
</g>
<g fill="#90908D" fill-opacity="1.00" stroke="None">
<path d="
M 827.00 856.00 
C 820.98 855.59 812.80 856.55 807.00 856.00 C 801.20 855.45 792.01 857.06 787.00 856.00 C 781.99 854.94 771.38 858.88 769.00 855.00
C 769.16 858.39 780.86 857.18 786.00 857.00 C 791.14 856.82 802.21 857.95 807.00 857.00 C 811.79 856.05 824.66 859.83 827.00 856.00 Z"/>
</g>
<g fill="#696A68" fill-opacity="1.00" stroke="None">
<path d="
M 532.00 925.00 
C 528.43 926.44 520.89 925.06 517.00 925.00 C 513.11 924.94 505.46 926.58 502.00 925.00
C 505.41 927.29 512.59 925.94 517.00 926.00 C 521.41 926.06 528.46 927.12 532.00 925.00 Z"/>
</g>
</svg>